<?xml version="1.0" encoding="utf-8"?>
<!-- Generator: Adobe Illustrator 25.1.0, SVG Export Plug-In . SVG Version: 6.00 Build 0)  -->
<svg version="1.1" id="katman_1" xmlns="http://www.w3.org/2000/svg" xmlns:xlink="http://www.w3.org/1999/xlink" x="0px" y="0px"
	 viewBox="0 0 167.9 160" style="enable-background:new 0 0 167.9 160;" xml:space="preserve">
<style type="text/css">
	.st0{fill:url(#Path_1_);}
	.st1{fill:#F624A0;}
	.st2{opacity:0.41;fill:#F58000;enable-background:new    ;}
</style>
<g id="Page-1">
	<g id="_x31_440-copy-10" transform="translate(-131.000000, -35.000000)">
		<g id="Group-5" transform="translate(131.000000, 35.000000)">
			
				<linearGradient id="Path_1_" gradientUnits="userSpaceOnUse" x1="-1516.8065" y1="-168.2903" x2="-1512.6287" y2="-168.2903" gradientTransform="matrix(34.0091 0 0 27.6176 51594.6367 4742.27)">
				<stop  offset="0" style="stop-color:#FF9200"/>
				<stop  offset="0.29" style="stop-color:#F36D00"/>
				<stop  offset="0.32" style="stop-color:#F4680B"/>
				<stop  offset="0.57" style="stop-color:#F83C72"/>
				<stop  offset="0.78" style="stop-color:#FC1CBE"/>
				<stop  offset="0.93" style="stop-color:#FE08ED"/>
				<stop  offset="1" style="stop-color:#FF00FF"/>
			</linearGradient>
			<path id="Path_00000119823399749815237750000012293839204500695980_" class="st0" d="M80.5,157c-0.8,0-2.1-0.5-3-0.9
				c-7.4-4.6-63-42.5-65.1-43.9c-1.7-0.9-2.5-2.3-3-4.4V55.3c0-1.8,0.8-3.6,2.5-5l0.5-0.5c5.5-3.6,23.5-15.3,26.3-17.2
				C39.5,32,40,32,40.8,32c0.8,0,1.3,0,2.1,0.5c0,0,25.1,17.6,29.3,19.4c2.5,1.4,5.8,1.8,8.8,1.8c3.3,0,6.8-0.9,9.6-2.7
				c3.8-2.3,28.1-18.5,28.1-18.5c0.5-0.5,1.3-0.5,2.1-0.5s1.7,0.5,2.1,0.5c3.3,1.8,25.5,16.7,26.8,17.6l0,0c1.7,0.9,2.5,2.7,2.5,5
				v52.8c0,1.8-1.3,3.6-3,4.4c-2.1,1.4-57.7,38.8-65.3,43.7C82.6,156.5,81.5,157,80.5,157z"/>
			<path id="Path_00000062884564631754879330000012588648073312140713_" class="st1" d="M80.2,157L80.2,157c1.3,0,2.1-0.5,3.3-0.9
				c7.6-4.4,63.1-42.5,65.3-43.7c1.7-0.9,2.5-2.3,3-4.4V55.3c0-0.9,0-1.8-0.5-2.7l-70.7,42L80.2,157L80.2,157z"/>
			<path id="Path_00000070828742471698981080000002428197058577414569_" class="st2" d="M9.4,108.1c0.5,1.8,1.3,3.6,3,4.4
				c2.1,1.4,57.7,38.8,65.3,43.7c0.8,0.5,1.7,0.9,2.5,0.9V94.6L9.4,53.2c0,0.5-0.5,1.4-0.5,1.8L9.4,108.1L9.4,108.1z"/>
		</g>
	</g>
</g>
</svg>
