<?xml version="1.0" encoding="utf-8"?>
<!-- Generator: Adobe Illustrator 25.1.0, SVG Export Plug-In . SVG Version: 6.00 Build 0)  -->
<svg version="1.1" id="Layer_1" xmlns="http://www.w3.org/2000/svg" xmlns:xlink="http://www.w3.org/1999/xlink" x="0px" y="0px"
	 viewBox="0 0 48 48" style="enable-background:new 0 0 48 48;" xml:space="preserve">
<style type="text/css">
	.st0{fill:#F4511E;}
	.st1{fill:#FAFAFA;}
</style>
<path class="st0" d="M37.3,43.5H10.7c-2.3,0-4.1-1.7-4.3-3.9L5.1,12.1c0-0.6,0.4-1,1.1-1h35.6c0.7,0,1.1,0.5,1.1,1l-1.3,27.5
	C41.4,41.8,39.6,43.5,37.3,43.5z"/>
<path class="st0" d="M32.9,11.4h-2.1c0-4.2-3.1-7.6-6.8-7.6s-6.8,3.5-6.8,7.6h-2.1c0-5.3,4-9.7,8.9-9.7S32.9,6.2,32.9,11.4z"/>
<path class="st1" d="M24.3,25.9c-2.9-1-4.7-1.8-4.7-3.6c0-1.9,1.9-3.2,4.4-3.2c1.7,0,3.3,0.6,4.1,1c0.1,0.1,0.5,0.3,0.7,0.4l0.1,0.1
	L30,19l-0.1-0.1c-0.8-0.5-3.1-1.8-5.7-1.8c-3.6,0-6.4,2.2-6.4,5.1c0,3.3,3.2,4.4,5.8,5.4c3.2,1.2,5.2,2.1,5.2,4.4
	c0,1.8-2.1,3.3-4.8,3.3c-3.1,0-5.6-2.2-5.6-2.2l-0.1-0.1l-1.1,1.5l0.1,0.1c0.8,0.6,3.5,2.4,6.8,2.4c3.9,0,6.8-2.3,6.8-5.3
	C30.6,28.2,27.3,26.9,24.3,25.9z"/>
</svg>
