<?xml version="1.0" encoding="utf-8"?>
<!-- Generator: Adobe Illustrator 25.1.0, SVG Export Plug-In . SVG Version: 6.00 Build 0)  -->
<svg version="1.1" id="Layer_1" xmlns="http://www.w3.org/2000/svg" xmlns:xlink="http://www.w3.org/1999/xlink" x="0px" y="0px"
	 viewBox="0 0 687 770.3" style="enable-background:new 0 0 687 770.3;" xml:space="preserve">
<style type="text/css">
	.st0{fill-rule:evenodd;clip-rule:evenodd;}
</style>
<g>
	<path class="st0" d="M595,662.9c-1.1-32.8-47.3-86.5-87.4-91.2c-39.6-4.5-68.7-23.5-92-41.4c-5.7-4.4-10.8-6.5-15.7-6.5
		c-5.8,0-10.9,2.9-15.6,9c-12.6,16.2-29.3,29.1-45.4,41.6c-8.4,6.5-17.1,13.3-25.1,20.4c-3,2.6-5.5,3.9-7.8,3.9
		c-2.2,0-4.5-1.1-6.9-3.5c-8.3-8.2-18.3-14.9-27.9-21.4c-5.8-3.9-11.5-7.8-17-12.1c-27.2-21-38.5-44.7-34.6-72.4
		c0.1-0.9,0.1-1.9,0.1-2.9c0-1.9,0-3.9,1-4.9c0.6-0.5,1.4-0.7,2.7-0.7c0.5,0,1.1,0,1.8,0.1c2.1,0.3,4.2,0.5,6.1,0.5
		c6.7,0,11-2.6,12.9-8c3.3-9.3-4-14.2-10.5-18.6l-1.3-0.9c-26.5-17.8-47-41.2-62.5-71.6c-10.3-20.1-11.3-40.3-3.1-60
		c13.1-31.9,29.2-53.1,53-69.4c3.9-2.7,6.3-4.3,8.4-4.3c1.9,0,4.1,1.3,8,4.7c52.2,46,100.7,75.2,152.8,91.9
		c12.3,3.9,16.1,9.8,13.6,20.9l-1.6,7.6c-5.9,28.2-11.5,54.9-37.2,74.9c-3.6,2.8-5.7,6.2-5.8,9.8c-0.2,3.2,1.3,6.2,4.1,8.8
		c2.7,2.5,5.8,3.7,9.3,3.7c3.7,0,7.7-1.4,11.8-4.2c14.5-9.8,25.1-22.4,31.5-37.6c9.2-21.8,14.7-42.3,16.7-62.7
		c0.8-8.1,1.8-13.2,9.5-16.3c6.7-2.6,9.5-7.9,7.4-14.2c-1.7-5.2-6.3-8.2-13-8.4c-33.1-1.3-61.1-13.7-92.8-31.9
		c-56.1-32.1-97.8-63.5-119.4-112.3c-3.5-8-8.1-11.9-14.2-11.9c-2,0-4.2,0.4-6.4,1.3c-4,1.5-6.7,3.9-8,6.9c-1.6,3.8-1,8.6,1.8,14
		c4.1,8,8.8,15.8,13.8,24c2.3,3.9,4.8,7.9,7.2,12.1c-7.6,1.7-15.4,4.1-22.2,8.9c-35,24.3-54.9,57.7-60.9,102.1
		c-5.4,39.7,17.2,71.8,42.4,100.6c15.5,17.7,14.3,37.8,13.2,57.3c-0.6,10.1-1.2,20.5,0.5,30.6c0.1,0.5-1.4,1.8-2.2,2.6
		c-0.7,0.7-1.5,1.4-2.1,2c-15.4,18.6-33.9,36.1-64.9,38c-7.9,0.4-15.6,2.5-23.2,4.5c-5.5,1.5-11.2,3-16.8,3.8
		c-35.7,5.2-59.6,24-73,57.4c-0.8,1.9-1.8,4-2.8,6.1C1.9,650.4-1.8,658,1,664c1.4,3,4.5,5.4,9.1,7c2.3,0.8,4.4,1.2,6.3,1.2
		c9.8,0,12.8-9.4,15.6-17.7c0.8-2.3,1.5-4.6,2.4-6.5c10.6-23.9,28-37.8,53.1-42.4c13.2-2.4,26.3-5.3,39.4-8.1
		c7.8-1.7,15.6-3.4,23.4-5c2.8-0.6,5.3-0.8,7.6-0.8c6.8,0,12.3,2.4,17.5,7.4c12.9,12.7,26.4,25.3,39.5,37.4c7,6.5,14,13,20.9,19.5
		c8.8,8.3,15.5,11.9,22.2,11.9c6.5,0,13.3-3.4,22.2-11.1l2.5-2.2c9.9-8.6,15.3-13.3,19.6-13.3c4.6,0,9.3,5.6,18.5,16.7l1.7,2
		c2.2,2.7,4.8,5.8,8,8c3.4,2.3,7.4,3.6,11,3.6s6.6-1.3,8.6-3.8c7.6-9.9,17.9-17.8,27.9-25.4c12.4-9.5,25.3-19.4,32.8-33
		c8.5-15.4,19.8-22.6,35.5-22.6c5.5,0,11.6,0.9,18.5,2.7c3.8,1,7.9,1.6,11.7,2.1c48.7,5.7,77.9,30.5,89.3,75.8
		c1.7,7,4.9,15.1,14.6,15.1c1,0,2-0.1,3.1-0.2C595.5,680.1,595.1,669.3,595,662.9z M410.1,562.8l-1.1,2.1c-0.7,1.3-1.4,2.6-2.2,3.9
		c-16.3,24.2-36,44.8-58.4,61.3c-3.1,2.2-5.5,3.3-7.6,3.3c-2.2,0-4.5-1.2-7-3.7c-5.3-5.3-8.2-9.2-2-14.7
		c8.6-7.4,17.8-14.4,26.8-21.3c13.8-10.5,28.1-21.3,40.3-33.8c1.5-1.5,3-2.3,4.5-2.3C405.8,557.7,408.3,560,410.1,562.8z
		 M250.8,632.3c-0.7-0.8-1.5-1.6-2.2-2.3c-7.4-6.9-14.7-13.9-22.1-20.9c-10-9.5-19.9-19.1-30.3-28.3c-3.7-3.3-5.5-6.4-5.5-9.3
		c0.1-4.5,4.4-8.1,8.7-11.7l2.2-1.9c2.2-2,4.2-3,5.9-3c2.9,0,5,3.4,6.9,6.4c0.8,1.2,1.5,2.4,2.2,3.3c9,11.1,21.2,19.3,33,27.2
		c7.7,5.2,15.7,10.5,22.6,16.6l2.1,1.7c3.1,2.5,6,4.8,6.7,8.1c-4.4,6.9-10.9,12.8-20,17.9c-1.1,0.7-2.2,1-3.2,1
		C255.2,637.1,253,634.6,250.8,632.3z"/>
	<path class="st0" d="M91,415.6c2.5,0.3,4.8,0.4,6.9,0.4c13.9,0,20.1-6.3,20.5-21.2c0.6-23.8,0.5-47.2-0.1-69.5
		c-1.3-39.8,5.8-78,21.9-116.7c11.7-28.4,33.8-51.1,65.8-67.5c25.7-13,53.4-19.6,82.5-19.6c71.3,0,135.4,39.7,155.8,96.5
		c12.2,33.6,17.1,63.9,14.9,92.6c1.3,25.1-0.6,47.4-5.7,68.1c-5.4,20.9-11.4,39.4-18.3,56.7c-12.4,31-35.7,51-69.3,59.5l-1.8,0.5
		c-2.5,0.6-5.1,1.3-7.4,1.3c-2.6,0-4.4-0.9-5.6-2.8c-10.4-15.5-26-17.5-39.8-17.5c-4.1,0-8.3,0.2-12.5,0.4l-2.5,0.1
		c-21.3,1-34.9,12.9-36.4,31.7c-1.6,18.9,12,34.5,32.6,37.1c5,0.6,9.5,0.9,13.7,0.9c16.7,0,29.6-4.8,39.6-14.7
		c7-6.9,16.6-9.7,25-11.6c48-11,79.4-38.7,95.7-84.8c3.7-10.5,8.9-14.2,20.6-14.6c28-1.2,45.4-13.8,51.5-37.3
		c6.6-25.2,4.7-50.7-5.8-75.8c-5.3-12.7-13.6-19.7-23.9-20.1c-18.4-1-20.2-11.4-22.3-23.4l-0.3-1.7c-6.4-37.6-17.3-66.3-34.4-90.3
		c-26.3-37.3-88.6-77.4-163.5-77.4c-18.6,0-37,2.6-54.4,7.8c-56.6,16.7-92.2,41.9-112.1,79.4c-16.1,30.4-26.2,58.6-30.6,86.2
		c-1.6,9.7-5.6,13.3-15.8,14.3c-18.2,1.5-29.9,11.9-33,29.3c-2.4,14.3-4.9,31.3-5.3,48.4C36.5,398.2,49,411.1,91,415.6z M80,309.5
		l0.7,1c5.4,0.4,6.7,3.8,7.1,9.1l0.6,10.8c0.8,15.4,1.7,30.9,2.2,46.3l0.1,1.9c0.3,5.4,0.1,8.7-5.8,9.4c-0.8,0.1-1.5,0.1-2.2,0.1
		c-6.1,0-10.8-3.1-13.2-8.7c-2.5-6.1-2.3-12.2-2.1-18.8c0.1-2.8,0.2-5.6,0-8.4c-0.4-12.7,0.9-23.8,4-34.1c1.6-5.3,4.2-7.6,8.5-7.6
		L80,309.5C79.9,309.5,80,309.5,80,309.5z M497.6,313.9c4.1,0,7.2,2.3,9.1,7c4.7,10.6,7.2,22.4,6.8,31.6
		c-0.2,19.9-1.8,34.6-20.7,41.8c-3.2,1.2-5.6,1.8-7.5,1.8c-1.4,0-2.4-0.3-3-1c-1.3-1.3-1.7-4.1-1.1-8.2c1-6.5,2.2-13,3.5-19.5
		c2.8-14.3,5.7-29.1,5.3-44.1c-0.1-5.2,0.9-8.7,6.4-9.3C496.9,313.9,497.2,313.9,497.6,313.9z"/>
</g>
</svg>
