<?xml version="1.0" encoding="utf-8"?>
<!-- Generator: Adobe Illustrator 25.1.0, SVG Export Plug-In . SVG Version: 6.00 Build 0)  -->
<svg version="1.1" id="Layer_1" xmlns="http://www.w3.org/2000/svg" xmlns:xlink="http://www.w3.org/1999/xlink" x="0px" y="0px"
	 viewBox="0 0 256 256" style="enable-background:new 0 0 256 256;" xml:space="preserve">
<style type="text/css">
	.st0{fill:#00F2EA;}
	.st1{fill:#FF004F;}
</style>
<g transform="translate(1.4065934065934016 1.4065934065934016) scale(2.81 2.81)">
	<path class="st0" d="M38.3,37.7V35c-0.9-0.1-1.9-0.2-2.8-0.2c-11.5,0-20.8,9.4-20.8,21c0,7.1,3.5,13.4,8.9,17.2
		C20,69.1,18,64,18,58.7C18,47.3,27.1,38,38.3,37.7"/>
	<path class="st0" d="M38.8,68.3c5.1,0,9.3-4.1,9.5-9.2l0-45.8h8.3c-0.2-1-0.3-1.9-0.3-2.9H45l0,45.8c-0.2,5.1-4.4,9.2-9.5,9.2
		c-1.5,0-3.1-0.4-4.4-1.1C32.9,66.8,35.8,68.3,38.8,68.3 M72.1,28.8v-2.5c-3,0-6-0.9-8.6-2.6C65.8,26.3,68.8,28.1,72.1,28.8"/>
	<path class="st1" d="M63.5,23.7c-2.5-2.9-3.9-6.6-3.9-10.4h-3C57.4,17.6,59.9,21.3,63.5,23.7 M35.5,46.2c-5.2,0-9.5,4.3-9.5,9.6
		c0,3.6,2,6.8,5.1,8.5c-1.2-1.6-1.8-3.6-1.8-5.6c0-5.3,4.3-9.6,9.5-9.6c1,0,1.9,0.2,2.8,0.4V37.9c-0.9-0.1-1.9-0.2-2.8-0.2
		c-0.2,0-0.3,0-0.5,0v9C37.4,46.3,36.5,46.2,35.5,46.2"/>
	<path class="st1" d="M72.1,28.8v8.9c-5.9,0-11.3-1.9-15.7-5.1v23.2c0,11.6-9.3,21-20.8,21c-4.4,0-8.5-1.4-11.9-3.8
		c3.9,4.3,9.4,6.7,15.2,6.7c11.5,0,20.8-9.4,20.8-21V35.5c4.6,3.3,10.1,5.1,15.7,5.1V29.2C74.3,29.2,73.2,29,72.1,28.8"/>
	<path d="M56.4,55.8V32.6c4.6,3.3,10.1,5.1,15.7,5.1v-8.9c-3.3-0.7-6.3-2.5-8.6-5.1c-3.6-2.4-6.1-6.1-6.9-10.4h-8.3l0,45.8
		c-0.2,5.1-4.4,9.2-9.5,9.2c-3.1,0-5.9-1.5-7.7-4C28,62.6,26,59.4,26,55.8c0-5.3,4.3-9.6,9.5-9.6c1,0,1.9,0.2,2.8,0.4v-9
		C27.1,38,18,47.3,18,58.7c0,5.5,2.1,10.6,5.6,14.3c3.5,2.5,7.7,3.8,11.9,3.8C47,76.8,56.4,67.4,56.4,55.8"/>
</g>
</svg>
