<?xml version="1.0" encoding="utf-8"?>
<!-- Generator: Adobe Illustrator 25.1.0, SVG Export Plug-In . SVG Version: 6.00 Build 0)  -->
<svg version="1.1" id="Layer_1" xmlns="http://www.w3.org/2000/svg" xmlns:xlink="http://www.w3.org/1999/xlink" x="0px" y="0px"
	 viewBox="0 0 3000 3000" style="enable-background:new 0 0 3000 3000;" xml:space="preserve">
<style type="text/css">
	.st0{fill:#414141;}
	.st1{fill-rule:evenodd;clip-rule:evenodd;fill:#4F9D4E;}
	.st2{fill-rule:evenodd;clip-rule:evenodd;fill:#60BB55;}
	.st3{fill-rule:evenodd;clip-rule:evenodd;fill:#84C567;}
	.st4{fill-rule:evenodd;clip-rule:evenodd;fill:#FFFFFF;}
	.st5{fill-rule:evenodd;clip-rule:evenodd;fill:#414141;}
	.st6{fill-rule:evenodd;clip-rule:evenodd;fill:#FFC868;}
	.st7{fill-rule:evenodd;clip-rule:evenodd;fill:#FCF5AE;}
	.st8{fill:none;}
</style>
<g id="Layer_x0020_1">
	<g id="_2337287899248">
		<path class="st0" d="M2001.5,798.3h519.2v1189.3c0,177.9-73.4,339.8-193,457.5s-284.1,191.3-466.2,191.3H479.3V798.3h519.2
			c15-112.4,66.6-212.7,144.1-289c91.1-89.6,217.5-145.8,357.5-145.8s266.4,56.2,357.5,145.8C1934.9,585.6,1986.6,686,2001.5,798.3z
			 M1126.2,802.3c59.8,4,116.9,14.7,169.9,28.1c73.4,17.4,141.4,44.1,203.9,74.9c62.5-30.8,130.5-57.5,203.9-74.9
			c53-13.4,110.1-24.1,169.9-28.1c-13.6-78.9-51.6-149.8-106-204.7c-69.3-66.9-163.1-108.4-267.8-108.4s-198.4,41.5-267.8,108.4
			C1177.9,652.5,1139.8,723.4,1126.2,802.3z"/>
		<path class="st1" d="M1970.3,869.2h471.6c4.1,0,6.8,2.7,6.8,6.7v1111.7c0,317.1-263.7,577.9-587.2,577.9H1500V987
			C1627.8,913.4,1786.8,869.2,1970.3,869.2z"/>
		<path class="st2" d="M1029.7,869.2H558.1c-4.1,0-6.8,2.7-6.8,6.7c0,563.2,0,1126.4,0,1689.6c315.3,0,632,0,948.7,0V987
			C1372.2,913.4,1213.2,869.2,1029.7,869.2z"/>
		<path class="st2" d="M2236.7,2431.8c-101.9,82.9-232.4,133.8-375.1,133.8H1500v-611.4C1826.2,1955.5,2107.6,2150.8,2236.7,2431.8z
			"/>
		<path class="st3" d="M707.6,2565.5H1500v-611.4c-1.4,0-2.7,0-4.1,0C1118.1,1954.2,800,2213.7,707.6,2565.5z"/>
		<path class="st0" d="M1056.9,1094c133.2,0,252.8,53.5,339.8,137.8c43.5,44.1,78.8,95,103.3,152.5
			c24.5-57.5,59.8-108.4,103.3-152.5c87-84.3,206.6-137.8,339.8-137.8s252.8,53.5,339.8,137.8c87,85.6,140,204.7,140,334.4
			c0,131.1-53,248.8-140,334.4c-87,85.6-206.6,139.1-339.8,139.1c-69.3,0-134.6-14.7-194.4-40.1l-23.1,22.7l-190.3,186l-39.4,40.1
			l-39.4-40.1l-188.9-186l-21.7-21.4c-58.4,25.4-122.3,38.8-188.9,38.8c-133.2,0-252.8-53.5-339.8-139.1s-140-203.3-140-334.4
			c0-129.8,53-248.8,140-334.4C804.1,1147.5,923.7,1094,1056.9,1094z M1555.7,1847.2c-21.7-29.4-40.8-62.9-55.7-97.7
			c-15,34.8-32.6,66.9-55.7,96.3c17.7-2.7,34-5.4,51.6-5.4C1516.3,1840.5,1536.7,1843.1,1555.7,1847.2z"/>
		<path class="st4" d="M1943.1,1164.9c225.6,0,409.1,179.3,409.1,401.3s-183.5,402.7-409.1,402.7S1534,1788.3,1534,1566.2
			S1717.5,1164.9,1943.1,1164.9z"/>
		<path class="st4" d="M1056.9,1164.9c225.6,0,409.1,179.3,409.1,401.3s-183.5,402.7-409.1,402.7s-409.1-180.6-409.1-402.7
			S831.3,1164.9,1056.9,1164.9z"/>
		<path class="st5" d="M1101.8,1312c142.7,0,258.2,113.7,258.2,254.2s-115.5,254.2-258.2,254.2s-258.2-113.7-258.2-254.2
			c0-45.5,12.2-88.3,34-125.8c17.7,49.5,65.2,84.3,121,84.3c69.3,0,126.4-56.2,126.4-124.4c0-33.4-15-64.2-36.7-87
			C1092.2,1313.4,1097.7,1312,1101.8,1312z"/>
		<path class="st5" d="M1888.7,1312c142.7,0,258.2,113.7,258.2,254.2s-115.5,254.2-258.2,254.2s-258.2-113.7-258.2-254.2
			c0-45.5,13.6-88.3,35.3-125.8c16.3,49.5,63.9,84.3,119.6,84.3c69.3,0,126.4-56.2,126.4-124.4c0-33.4-13.6-64.2-36.7-87
			C1879.2,1313.4,1884.6,1312,1888.7,1312z"/>
		<path class="st6" d="M1495.9,1896.7c74.8,0,142.7,33.4,190.3,87l-190.3,186V1896.7z"/>
		<path class="st7" d="M1495.9,2169.6l-188.9-186c47.6-53.5,114.2-87,188.9-87V2169.6z"/>
	</g>
	<polygon class="st8" points="-3,228.8 2997,228.8 2997,3228.8 -3,3228.8 	"/>
</g>
</svg>
